<?xml version="1.0" standalone="no"?>
<!DOCTYPE svg PUBLIC "-//W3C//DTD SVG 20010904//EN"
 "http://www.w3.org/TR/2001/REC-SVG-20010904/DTD/svg10.dtd">
<svg version="1.0" xmlns="http://www.w3.org/2000/svg"
 width="290.000000pt" height="173.000000pt" viewBox="0 0 290.000000 173.000000"
 preserveAspectRatio="xMidYMid meet">

<g transform="translate(0.000000,173.000000) scale(0.100000,-0.100000)"
fill="#000000" stroke="none">
<path d="M1342 1224 c-157 -326 -150 -297 -80 -339 l28 -16 97 196 c54 107
100 195 103 195 3 0 49 -88 103 -195 l97 -195 43 27 c23 15 43 28 45 29 3 1
-286 594 -290 594 -2 0 -68 -133 -146 -296z"/>
<path d="M393 1356 c4 -10 7 -21 7 -26 0 -5 14 -22 31 -39 l31 -31 285 0 286
0 81 -62 c45 -34 86 -66 93 -71 9 -6 19 4 35 37 l22 46 -33 28 -34 28 22 43
c13 24 21 45 19 47 -2 2 -195 6 -428 10 -400 7 -423 6 -417 -10z"/>
<path d="M1903 1363 l-171 -3 25 -47 26 -46 -34 -28 -34 -27 23 -47 22 -46 92
70 92 71 287 0 287 0 31 35 c17 20 31 45 31 55 0 19 -7 20 -252 18 -139 -1
-330 -4 -425 -5z"/>
<path d="M840 1215 c0 -4 268 -210 297 -228 9 -5 19 6 35 37 12 25 20 47 17
49 -2 2 -45 36 -96 75 l-91 72 -81 0 c-45 0 -81 -2 -81 -5z"/>
<path d="M1886 1150 c-50 -39 -92 -73 -94 -75 -4 -4 24 -79 35 -94 3 -5 313
227 313 234 0 3 -37 5 -82 5 l-83 0 -89 -70z"/>
<path d="M559 1192 c22 -41 36 -45 143 -37 l102 7 -29 24 c-27 21 -40 24 -128
24 -92 0 -97 -1 -88 -18z"/>
<path d="M2202 1186 l-32 -23 83 -6 c130 -11 133 -10 157 23 l21 30 -98 0
c-88 0 -103 -3 -131 -24z"/>
<path d="M720 1102 c0 -24 30 -32 120 -32 l95 0 -30 20 c-23 16 -47 20 -107
20 -43 0 -78 -4 -78 -8z"/>
<path d="M2070 1090 l-25 -20 92 0 c70 0 95 4 107 16 9 8 16 17 16 20 0 2 -37
4 -82 4 -67 0 -88 -4 -108 -20z"/>
<path d="M1551 1068 l-1 -38 -50 0 c-154 0 -239 -166 -149 -292 26 -35 96 -68
148 -68 40 0 121 32 121 48 0 5 -13 21 -29 36 -24 23 -32 26 -49 17 -34 -18
-79 -13 -109 13 -40 34 -39 98 1 133 35 30 72 28 161 -10 33 -14 61 -24 63
-22 2 1 -22 52 -52 111 -51 102 -55 107 -55 72z"/>
<path d="M1702 594 c-20 -14 -22 -24 -22 -103 0 -72 3 -91 18 -104 38 -35 92
-8 92 46 0 29 -27 38 -35 12 -16 -49 -15 -48 -31 -35 -23 20 -16 153 9 158 12
2 17 -3 17 -17 0 -14 6 -21 20 -21 13 0 20 7 20 20 0 22 -33 60 -53 60 -7 0
-23 -7 -35 -16z"/>
<path d="M1017 500 c-10 -54 -17 -106 -17 -115 0 -28 27 -16 34 15 7 40 46 43
46 5 0 -23 24 -45 35 -33 4 4 -17 146 -30 206 -4 15 -13 22 -29 22 -21 0 -24
-7 -39 -100z m52 -17 c1 -13 -5 -23 -12 -23 -9 0 -11 13 -8 43 3 33 5 38 12
22 4 -11 8 -30 8 -42z"/>
<path d="M1170 485 c0 -94 3 -115 15 -115 11 0 15 17 17 73 l3 72 24 -72 c19
-55 30 -73 43 -73 16 0 18 11 18 115 0 94 -3 115 -15 115 -11 0 -15 -17 -17
-72 l-3 -73 -23 73 c-18 57 -27 72 -42 72 -19 0 -20 -7 -20 -115z"/>
<path d="M1376 578 c-18 -79 -36 -201 -32 -205 12 -13 36 9 36 32 0 38 36 34
45 -5 4 -16 13 -30 21 -30 17 0 17 -7 -2 123 -16 101 -18 107 -40 107 -16 0
-25 -7 -28 -22z m30 -116 c-13 -12 -18 9 -10 45 l8 38 4 -39 c2 -21 1 -41 -2
-44z"/>
<path d="M1512 488 c3 -98 5 -113 21 -116 14 -3 17 4 17 43 0 59 21 57 34 -3
7 -31 14 -42 28 -42 15 0 17 5 11 28 -5 15 -7 60 -5 101 3 88 -5 101 -65 101
l-44 0 3 -112z m73 42 c0 -25 -5 -36 -17 -38 -15 -3 -18 4 -18 38 0 34 3 41
18 38 12 -2 17 -13 17 -38z"/>
<path d="M1866 528 c13 -39 24 -91 24 -115 0 -32 4 -43 15 -43 12 0 15 13 15
55 0 31 9 76 20 105 24 62 25 72 3 68 -9 -2 -22 -19 -28 -38 l-13 -35 -11 28
c-6 16 -11 33 -11 38 0 5 -9 9 -19 9 -19 0 -19 -2 5 -72z"/>
<path d="M1034 306 c-3 -8 -4 -23 -2 -33 3 -15 14 -18 73 -19 l70 -1 -65 6
c-56 5 -65 9 -65 26 0 17 9 21 65 26 l65 6 -68 1 c-51 2 -69 -2 -73 -12z"/>
<path d="M1272 288 l-2 -38 68 2 67 2 -62 3 c-61 4 -62 4 -66 36 -4 31 -4 31
-5 -5z"/>
<path d="M1503 290 l2 -35 65 0 65 0 2 35 c1 19 -1 26 -4 15 -9 -35 -24 -45
-69 -45 -40 0 -44 2 -53 33 l-10 32 2 -35z"/>
<path d="M1740 285 l0 -35 65 0 65 0 0 35 0 35 -65 0 -65 0 0 -35z m120 15 c0
-5 -25 -10 -56 -10 -34 0 -53 4 -49 10 3 6 28 10 56 10 27 0 49 -4 49 -10z m0
-30 c0 -5 -25 -10 -56 -10 -34 0 -53 4 -49 10 3 6 28 10 56 10 27 0 49 -4 49
-10z"/>
</g>
</svg>
