<?xml version="1.0" standalone="no"?>
<!DOCTYPE svg PUBLIC "-//W3C//DTD SVG 20010904//EN"
 "http://www.w3.org/TR/2001/REC-SVG-20010904/DTD/svg10.dtd">
<svg version="1.0" xmlns="http://www.w3.org/2000/svg"
 width="423.000000pt" height="418.000000pt" viewBox="0 0 423.000000 418.000000"
 preserveAspectRatio="xMidYMid meet">

<g transform="translate(0.000000,418.000000) scale(0.100000,-0.100000)"
fill="#000000" stroke="none">
<path d="M80 3921 c0 -134 4 -211 10 -211 6 0 10 -7 10 -15 0 -8 -4 -15 -10
-15 -6 0 -10 -40 -10 -100 0 -91 8 -118 25 -90 3 6 16 9 28 9 17 -1 18 -2 5
-6 -10 -2 -18 -9 -18 -14 0 -5 -9 -9 -20 -9 -19 0 -20 -7 -20 -90 0 -84 11
-115 25 -71 9 29 72 81 97 81 20 0 19 -3 -10 -28 -18 -16 -29 -32 -25 -35 3
-4 0 -7 -7 -7 -9 0 -8 -5 5 -13 14 -11 15 -16 5 -22 -7 -4 -15 -2 -20 4 -4 7
-10 -8 -14 -35 -3 -26 -11 -52 -16 -59 -10 -12 5 -105 25 -160 4 -11 -3 -4
-15 15 -13 19 -28 53 -35 75 -12 36 -13 24 -14 -122 -1 -144 1 -163 17 -173
16 -10 16 -10 -1 -20 -11 -7 -17 -23 -17 -45 0 -19 3 -35 6 -35 3 0 24 13 47
28 30 21 49 27 67 22 22 -5 17 -10 -45 -42 l-70 -36 -3 -169 c-1 -92 0 -179 3
-193 6 -24 7 -24 21 -6 8 11 14 15 14 9 0 -5 -9 -18 -20 -28 -18 -16 -20 -30
-19 -106 1 -49 5 -86 10 -84 4 3 10 1 14 -5 3 -6 -1 -13 -9 -16 -11 -4 -16
-19 -16 -47 l0 -41 75 76 c41 42 105 97 141 123 68 47 203 119 210 112 7 -7
-29 -34 -88 -64 -103 -54 -206 -127 -219 -156 -7 -17 -17 -26 -25 -23 -8 3
-14 2 -14 -2 0 -4 -18 -26 -41 -49 -25 -26 -39 -50 -37 -62 2 -15 25 2 107 81
96 92 199 173 209 163 10 -9 -36 -54 -66 -65 -20 -7 -78 -57 -143 -123 l-109
-111 0 -80 0 -79 24 25 c12 14 26 33 29 42 14 36 58 8 61 -39 1 -20 6 -25 28
-25 32 0 54 -30 36 -48 -7 -7 -28 -12 -48 -13 -19 0 -30 -3 -24 -5 16 -7 5
-52 -14 -59 -10 -4 -23 1 -32 12 -8 10 -25 19 -38 20 -18 2 -22 -2 -22 -28 0
-17 4 -28 10 -24 5 3 10 2 10 -4 0 -5 -4 -13 -10 -16 -5 -3 -10 -31 -10 -61 0
-51 1 -54 26 -54 33 0 30 -33 -4 -38 l-22 -3 0 -680 0 -679 675 0 675 0 104
88 c57 48 117 94 132 102 16 8 39 25 52 39 14 16 22 19 22 10 1 -10 5 -8 16 6
15 20 16 20 40 -10 17 -22 24 -25 24 -13 0 9 -4 20 -10 23 -15 10 -12 35 5 35
8 0 15 5 15 10 0 6 7 10 15 10 15 0 31 -61 20 -79 -3 -6 -1 -11 4 -11 6 0 12
20 12 45 1 25 2 50 3 57 2 23 143 47 246 42 101 -4 378 -38 386 -47 3 -3 8
-24 11 -46 8 -58 19 -59 19 -3 -1 42 1 47 19 43 11 -2 37 -3 58 -4 37 0 37 0
37 -44 0 -24 5 -43 10 -43 6 0 10 17 10 38 0 45 8 56 27 41 9 -9 13 -8 13 0 0
6 5 11 10 11 6 0 10 -20 10 -45 0 -57 18 -59 22 -2 2 34 7 42 23 42 17 0 20
-7 20 -43 0 -23 5 -42 10 -42 7 0 9 15 7 35 -5 42 8 61 47 68 45 9 124 60 149
97 43 64 62 151 62 284 0 134 8 159 57 169 35 7 90 44 115 78 24 32 37 88 38
154 0 46 4 55 40 90 57 56 76 122 60 213 -10 62 -9 74 10 125 20 54 52 91 88
101 258 72 291 105 257 253 -22 94 -178 448 -200 456 -4 1 -17 -24 -30 -56
-40 -98 -84 -164 -143 -217 -84 -75 -131 -95 -222 -94 -115 2 -200 49 -230
128 -28 74 -7 284 45 451 27 89 25 95 -39 95 -30 0 -37 3 -32 15 6 18 2 19
-22 4 -13 -8 -144 0 -512 30 -272 22 -531 43 -576 46 -91 6 -214 37 -196 49 7
4 17 4 24 0 6 -4 8 -3 5 3 -4 6 -20 13 -36 16 -31 6 -113 77 -89 77 16 0 105
-35 188 -73 63 -30 84 -33 315 -47 94 -6 238 -15 320 -20 83 -5 242 -14 355
-21 130 -7 208 -15 212 -23 6 -8 8 -7 8 2 0 8 21 12 73 12 l72 0 25 40 c42 68
127 111 254 129 61 9 275 5 309 -5 28 -9 20 -34 -14 -41 -25 -5 -30 -9 -24
-27 3 -12 9 -38 12 -58 3 -21 9 -38 13 -38 18 0 294 93 352 118 35 15 96 45
136 66 l72 38 0 108 0 107 -182 106 c-101 58 -199 114 -218 125 -78 43 -230
138 -315 196 -93 64 -262 223 -282 266 -46 97 -83 183 -83 191 0 5 -49 9 -111
9 -61 0 -108 -4 -105 -9 3 -5 -5 -11 -19 -13 -17 -4 -25 -1 -25 8 0 10 -17 14
-65 14 -70 0 -78 -9 -38 -43 17 -14 31 -16 59 -11 26 5 35 4 30 -5 -4 -6 -15
-11 -25 -11 -10 0 -26 -9 -36 -20 -10 -11 -13 -20 -8 -20 14 0 23 -50 9 -50
-6 0 -3 -7 7 -14 23 -18 21 -29 -7 -42 -21 -10 -25 -9 -30 10 -3 11 -1 23 4
24 16 6 11 32 -5 32 -8 0 -15 8 -15 18 0 33 -38 80 -67 85 -27 4 -27 4 5 6 24
1 32 6 32 20 0 24 -18 27 -106 21 -59 -4 -69 -7 -58 -18 8 -7 14 -10 14 -7 0
3 9 -4 21 -16 11 -11 18 -27 15 -34 -3 -8 -1 -17 5 -20 5 -4 7 -11 4 -16 -4
-5 1 -9 9 -9 16 0 19 -40 3 -51 -5 -3 -3 -12 5 -20 7 -8 14 -24 15 -36 2 -19
-2 -23 -26 -23 -25 0 -28 3 -23 25 2 14 -1 31 -7 39 -9 11 -9 15 1 19 7 3 -7
6 -32 7 -32 1 -39 4 -23 8 21 7 22 9 9 33 -13 25 -12 28 8 37 17 9 18 11 4 11
-19 1 -42 36 -34 50 3 5 -2 12 -12 16 -9 4 -551 10 -1204 12 l-1188 5 0 -211z
m2779 153 c-11 -13 -11 -15 2 -14 28 4 49 0 49 -10 0 -11 -63 -14 -73 -4 -9 9
11 44 25 44 6 0 6 -6 -3 -16z m114 -21 c-7 -2 -21 -2 -30 0 -10 3 -4 5 12 5
17 0 24 -2 18 -5z m-2465 -161 c2 -7 -6 -12 -17 -12 -21 0 -27 11 -14 24 9 9
26 2 31 -12z m2446 0 c2 -4 -7 -9 -22 -10 -21 -1 -24 0 -12 8 18 12 27 12 34
2z m-339 -52 c-3 -5 -17 -10 -31 -10 -13 0 -24 5 -24 10 0 6 14 10 31 10 17 0
28 -4 24 -10z m-1865 -44 c0 -3 -4 -8 -10 -11 -5 -3 -10 -1 -10 4 0 6 5 11 10
11 6 0 10 -2 10 -4z m-47 -108 c-14 -18 -22 -68 -11 -68 5 0 2 -7 -6 -16 -20
-20 -20 -25 1 -17 11 4 14 3 9 -5 -4 -7 -16 -12 -26 -12 -23 0 -35 -16 -18
-24 11 -5 11 -7 0 -12 -6 -3 -10 -10 -6 -15 3 -5 1 -9 -5 -9 -8 0 -8 -39 -1
-60 1 -3 2 -12 1 -20 0 -8 6 -35 13 -60 12 -35 15 -40 17 -20 1 14 1 27 1 30
0 3 25 6 56 7 31 1 51 0 44 -3 -6 -3 -10 -10 -6 -15 3 -5 1 -9 -4 -9 -5 0 -12
-9 -15 -21 -4 -13 -10 -18 -18 -13 -8 4 -10 3 -5 -4 10 -17 -27 -45 -66 -49
-67 -7 -108 18 -108 67 0 16 -8 42 -17 59 -17 29 -17 30 7 56 13 14 29 24 35
22 5 -2 19 -1 30 4 16 6 14 8 -11 8 -56 2 -60 58 -8 106 48 45 52 49 79 79 24
26 57 38 38 14z m151 -3 c-4 -8 -9 -15 -14 -15 -4 0 -12 -10 -18 -22 -9 -19
-11 -20 -11 -5 -1 10 4 27 9 38 13 23 42 26 34 4z m-394 -50 c0 -8 -7 -15 -15
-15 -8 0 -15 7 -15 15 0 8 7 15 15 15 8 0 15 -7 15 -15z m320 -25 c0 -5 -8
-10 -17 -10 -15 0 -16 2 -3 10 19 12 20 12 20 0z m159 -27 c-23 -28 -38 -65
-42 -103 -3 -24 -4 -18 -5 19 -2 44 2 59 20 78 25 27 48 32 27 6z m-136 -34
c-2 -19 -3 -41 -4 -51 0 -9 -9 -18 -20 -21 -15 -4 -20 -12 -17 -29 2 -19 -1
-23 -20 -21 -13 2 -21 -1 -17 -7 3 -5 -3 -14 -13 -19 -23 -12 -42 3 -42 35 0
13 -5 26 -10 29 -6 4 -8 11 -4 16 3 5 9 7 14 4 15 -9 22 15 10 30 -8 10 -9 15
-2 15 6 0 14 -4 17 -10 8 -12 16 -12 34 -1 12 8 11 13 -10 30 -13 11 -19 20
-13 21 5 0 15 -5 22 -12 10 -10 17 -7 34 10 30 29 44 23 41 -19z m37 11 c0 -5
-2 -10 -4 -10 -3 0 -8 5 -11 10 -3 6 -1 10 4 10 6 0 11 -4 11 -10z m130 -60
c0 -5 -2 -10 -4 -10 -3 0 -8 5 -11 10 -3 6 -1 10 4 10 6 0 11 -4 11 -10z m420
0 c0 -5 -4 -10 -10 -10 -5 0 -10 5 -10 10 0 6 5 10 10 10 6 0 10 -4 10 -10z
m-598 -45 c0 -5 -5 -11 -11 -13 -6 -2 -11 4 -11 13 0 9 5 15 11 13 6 -2 11 -8
11 -13z m284 4 c10 -17 -13 -36 -27 -22 -12 12 -4 33 11 33 5 0 12 -5 16 -11z
m-291 -39 c3 -5 1 -10 -4 -10 -6 0 -11 5 -11 10 0 6 2 10 4 10 3 0 8 -4 11
-10z m-463 -68 c18 -21 41 -41 51 -45 9 -3 17 -16 17 -27 0 -24 16 -26 37 -5
8 9 17 15 18 13 1 -2 5 -40 8 -85 3 -45 10 -90 15 -99 8 -15 11 -14 25 6 8 12
13 29 10 36 -3 8 -1 14 5 14 5 0 17 -18 26 -40 18 -44 22 -160 6 -160 -5 0
-10 9 -10 19 0 21 -30 38 -31 18 0 -9 -2 -9 -6 1 -2 6 -14 12 -24 12 -13 0
-25 12 -34 34 -22 51 -34 53 -29 4 3 -24 5 -51 5 -62 0 -10 7 -25 15 -33 7 -8
14 -22 14 -31 -1 -13 -4 -11 -14 7 -13 23 -13 23 -19 -14 -4 -25 -1 -48 9 -67
9 -17 14 -32 11 -34 -2 -2 -25 35 -50 84 -26 48 -61 111 -78 140 l-31 52 25 0
c23 0 25 3 17 28 -4 15 -13 40 -21 55 -10 22 -10 35 -1 60 6 18 14 51 18 73 5
35 3 45 -17 63 -12 11 -18 21 -12 21 6 0 26 -17 45 -38z m612 12 c9 -23 8 -24
-19 -24 -27 0 -32 9 -13 28 16 16 25 15 32 -4z m166 -14 c0 -18 -5 -20 -42
-18 -31 2 -44 8 -46 21 -3 14 4 17 42 17 40 0 46 -3 46 -20z m350 -39 c19 -8
10 -9 -40 -4 -66 6 -100 17 -100 32 0 10 96 -10 140 -28z m-290 19 c0 -13 -11
-13 -30 0 -12 8 -11 10 8 10 12 0 22 -4 22 -10z m-41 -34 c-7 -8 -98 -10 -105
-3 -4 4 19 7 51 7 32 0 56 -2 54 -4z m-879 -16 c0 -5 -7 -10 -16 -10 -8 0 -12
5 -9 10 3 6 10 10 16 10 5 0 9 -4 9 -10z m1215 -24 c66 -13 170 -29 230 -35
174 -17 179 -20 35 -16 -116 3 -347 36 -418 60 -19 7 -5 24 16 19 9 -2 71 -15
137 -28z m-555 16 c0 -5 -25 -15 -56 -22 -31 -8 -62 -20 -69 -27 -18 -17 -25
-16 -25 2 0 8 16 18 38 24 35 9 104 28 110 30 1 1 2 -3 2 -7z m240 -21 c0 -15
-63 -22 -77 -9 -10 11 -4 13 32 16 25 1 45 -2 45 -7z m445 -75 c23 -10 -68 -3
-169 13 -60 9 -111 21 -113 27 -3 8 42 3 134 -12 76 -14 143 -26 148 -28z
m-587 28 c-9 -10 -21 -13 -29 -8 -9 5 -8 9 7 15 31 12 39 10 22 -7z m-58 -4
c-20 -13 -33 -13 -25 0 3 6 14 10 23 10 15 0 15 -2 2 -10z m240 0 c0 -5 -14
-7 -32 -3 -46 8 -48 13 -5 13 21 0 37 -4 37 -10z m-290 -10 c0 -5 -4 -10 -10
-10 -5 0 -10 5 -10 10 0 6 5 10 10 10 6 0 10 -4 10 -10z m-26 -19 c4 -5 -18
-24 -46 -42 -29 -17 -57 -37 -63 -44 -12 -15 -55 -27 -106 -29 -20 -1 -44 -9
-53 -19 -21 -21 -27 -22 -20 -2 4 8 11 15 16 15 5 0 7 12 4 28 -7 34 2 49 35
57 34 8 60 -16 51 -47 -5 -21 -4 -22 11 -9 9 7 17 19 17 26 0 7 30 26 68 43
76 35 79 35 86 23z m193 3 c-3 -3 -12 -4 -19 -1 -8 3 -5 6 6 6 11 1 17 -2 13
-5z m-37 -54 c0 -5 -4 -10 -10 -10 -5 0 -10 5 -10 10 0 6 5 10 10 10 6 0 10
-4 10 -10z m565 -4 c119 -27 240 -58 260 -66 46 -20 -31 -9 -164 22 -119 28
-154 32 -283 32 -80 1 -145 2 -144 3 23 23 244 29 331 9z m60 -68 c50 -12 84
-23 78 -25 -7 -3 -46 3 -85 12 -40 10 -129 20 -198 23 -87 4 -114 8 -90 13 54
11 195 0 295 -23z m-430 -27 c100 -29 363 -146 352 -158 -3 -2 -49 18 -103 45
-259 130 -564 169 -797 102 -97 -28 -101 -30 -95 -35 3 -3 45 4 94 15 49 12
134 23 189 25 107 4 104 3 -50 -21 -55 -9 -132 -26 -171 -39 l-72 -22 0 37
c-1 36 0 37 56 55 80 26 173 34 342 30 126 -3 159 -7 255 -34z m-880 -66 c21
-36 35 -72 32 -80 -3 -7 -1 -16 6 -19 8 -3 3 -12 -13 -25 -27 -21 -54 -12 -43
15 8 22 -17 101 -38 120 -24 21 -24 41 -1 47 9 3 18 5 19 6 1 0 18 -28 38 -64z
m927 6 c102 -35 223 -89 215 -97 -3 -3 -47 11 -99 32 -51 21 -138 52 -193 71
-81 26 -91 32 -53 27 26 -3 85 -18 130 -33z m576 2 c68 -6 96 -23 38 -23 -47
0 -136 21 -136 33 0 5 8 6 17 2 10 -3 46 -9 81 -12z m-153 -24 c15 -14 -7 -10
-35 7 l-25 15 25 -7 c14 -3 29 -10 35 -15z m-1473 -6 c20 -18 25 -38 7 -27 -7
4 -10 1 -7 -7 3 -8 10 -13 16 -12 5 1 13 -4 16 -12 4 -10 -1 -15 -14 -15 -11
0 -20 -4 -20 -10 0 -15 -43 -12 -65 4 -19 13 -18 15 8 55 31 46 33 47 59 24z
m413 -28 c-16 -8 -37 -14 -45 -14 -8 0 -1 6 15 14 17 7 37 13 45 13 8 0 2 -6
-15 -13z m38 -55 c-41 -24 -83 -36 -83 -22 0 10 72 40 100 41 8 1 0 -8 -17
-19z m-333 -82 c25 -23 38 -37 30 -32 -69 45 -90 60 -90 67 0 15 16 5 60 -35z
m-75 -11 c-50 -35 -75 -49 -75 -44 0 9 72 57 85 57 5 0 1 -6 -10 -13z m190 3
c3 -5 -1 -10 -9 -10 -9 0 -16 5 -16 10 0 6 4 10 9 10 6 0 13 -4 16 -10z m1128
-33 c2 -12 8 -31 12 -42 4 -11 -7 -1 -24 22 -18 24 -29 47 -26 53 9 15 31 -4
38 -33z m167 -27 c1 -19 9 -66 20 -105 10 -38 17 -71 15 -73 -1 -1 -12 21 -24
50 -25 62 -45 164 -35 179 10 17 24 -11 24 -51z m-158 -47 c113 -133 135 -164
73 -98 -63 67 -155 174 -155 181 0 12 15 -3 82 -83z m-1140 5 c-15 -15 -72
-21 -72 -8 0 7 -7 10 -15 6 -30 -11 -14 5 17 18 24 10 38 11 55 3 13 -6 20
-14 15 -19z m1365 -10 c-3 -8 -6 -5 -6 6 -1 11 2 17 5 13 3 -3 4 -12 1 -19z
m29 -116 c-2 -2 -11 17 -19 42 -8 24 -12 47 -9 51 4 3 12 -15 19 -42 7 -26 11
-49 9 -51z m-1569 72 c-3 -3 -12 -4 -19 -1 -8 3 -5 6 6 6 11 1 17 -2 13 -5z
m317 -98 c-37 -17 -94 -30 -94 -22 0 6 88 34 110 35 8 0 1 -6 -16 -13z m1210
-12 c3 -8 2 -12 -4 -9 -6 3 -10 10 -10 16 0 14 7 11 14 -7z m-1560 -128 c8
-32 48 -27 90 11 29 26 29 26 -3 -9 -53 -58 -161 -101 -161 -65 0 8 9 22 20
32 25 22 26 45 3 46 -15 0 -15 2 2 8 27 11 42 4 49 -23z m193 7 c-9 -9 -19
-14 -23 -11 -10 10 6 28 24 28 15 0 15 -1 -1 -17z m-272 -3 c-3 -5 -11 -10
-16 -10 -6 0 -7 5 -4 10 3 6 11 10 16 10 6 0 7 -4 4 -10z m233 -6 c-3 -2 -27
-15 -54 -29 l-49 -24 33 27 c19 15 43 29 54 29 11 1 18 0 16 -3z m106 -19
c-10 -8 -22 -15 -26 -15 -11 0 -189 -109 -205 -126 -8 -8 -23 -14 -33 -14 -10
0 -27 -3 -37 -7 -31 -11 26 40 84 74 71 44 198 102 222 103 11 0 9 -4 -5 -15z
m46 -69 c0 -3 -26 -17 -57 -32 -32 -15 -61 -29 -65 -31 -5 -2 -8 0 -8 5 0 5
26 21 58 35 58 26 72 30 72 23z m-23 -122 c-9 -9 -28 6 -21 18 4 6 10 6 17 -1
6 -6 8 -13 4 -17z m54 -135 c-24 -55 -27 -30 -4 37 12 34 19 43 21 28 1 -11
-6 -40 -17 -65z m2015 47 c3 -8 17 -17 31 -21 24 -6 24 -7 8 -19 -12 -8 -16
-21 -12 -35 6 -24 3 -25 -25 -10 -14 8 -23 8 -31 0 -18 -18 -28 -12 -21 13 4
16 1 25 -10 29 -25 10 -19 27 9 27 16 0 25 6 25 15 0 19 19 20 26 1z m-2286
-66 c0 -5 -4 -10 -10 -10 -5 0 -10 5 -10 10 0 6 5 10 10 10 6 0 10 -4 10 -10z
m107 -47 c-4 -3 -2 -12 3 -18 6 -7 12 -57 14 -112 6 -144 23 -213 77 -321 27
-53 47 -98 45 -99 -9 -9 -80 95 -105 154 -50 117 -64 187 -58 290 5 88 11 113
24 113 4 0 3 -3 0 -7z m-167 -8 c0 -17 -58 -82 -68 -76 -8 5 -2 19 19 44 27
33 49 47 49 32z m380 -36 c-21 -76 -40 -162 -40 -182 0 -15 -3 -18 -8 -9 -12
18 2 107 28 175 24 63 35 72 20 16z m-350 -6 c-1 -10 -47 -63 -55 -63 -11 0 8
45 24 57 18 14 31 16 31 6z m2588 -93 c13 0 11 -4 -6 -16 -14 -10 -21 -22 -17
-31 4 -13 3 -14 -10 -3 -8 7 -22 10 -31 6 -12 -4 -14 -1 -9 14 4 11 2 20 -4
20 -6 0 -11 5 -11 10 0 6 6 10 14 10 8 0 17 8 20 17 6 14 8 14 22 -5 8 -12 23
-22 32 -22z m-2140 -48 c-1 -81 14 -167 38 -214 8 -15 10 -29 5 -32 -5 -3 -11
2 -14 12 -3 9 -15 49 -26 87 -27 89 -31 225 -6 225 2 0 4 -35 3 -78z m-208 8
c0 -5 -2 -10 -4 -10 -3 0 -8 5 -11 10 -3 6 -1 10 4 10 6 0 11 -4 11 -10z m247
-32 c-3 -7 -5 -2 -5 12 0 14 2 19 5 13 2 -7 2 -19 0 -25z m-229 -198 c12 -25
31 -61 44 -79 12 -19 17 -32 11 -28 -36 23 -107 188 -117 274 -4 37 0 29 18
-37 13 -47 33 -105 44 -130z m-205 145 c-16 -156 -24 -273 -19 -296 3 -16 1
-29 -4 -29 -12 0 -14 65 -10 323 0 22 4 28 18 25 10 -2 16 -12 15 -23z m997
-130 c-4 -5 -11 -26 -15 -45 -11 -54 -33 -88 -65 -105 -46 -24 -76 -19 -118
21 l-37 35 46 -32 c43 -29 50 -30 82 -20 61 20 72 42 70 136 -1 48 -8 98 -17
120 -27 64 -17 53 23 -25 21 -41 35 -79 31 -85z m-1108 113 c-7 -7 -12 -8 -12
-2 0 14 12 26 19 19 2 -3 -1 -11 -7 -17z m415 -10 c-3 -7 -5 -2 -5 12 0 14 2
19 5 13 2 -7 2 -19 0 -25z m73 -202 c18 -20 30 -39 28 -42 -22 -21 -117 96
-129 159 -16 80 -9 81 30 1 21 -44 53 -97 71 -118z m-40 139 c0 -5 -5 -3 -10
5 -5 8 -10 20 -10 25 0 6 5 3 10 -5 5 -8 10 -19 10 -25z m-91 -30 c0 -5 -6 1
-14 15 -8 14 -14 30 -14 35 0 6 6 -1 14 -15 8 -14 14 -29 14 -35z m488 8 c-3
-10 -5 -4 -5 12 0 17 2 24 5 18 2 -7 2 -21 0 -30z m967 3 c-3 -8 4 -24 15 -35
26 -26 26 -29 -1 -33 -14 -2 -25 -13 -29 -28 -7 -24 -7 -25 -8 -2 -1 13 -5 20
-11 17 -6 -3 -13 2 -16 12 -3 10 -10 26 -15 35 -13 26 -11 30 10 23 10 -3 24
1 31 10 16 19 31 20 24 1z m-934 -101 c0 -5 -5 -3 -10 5 -5 8 -10 20 -10 25 0
6 5 3 10 -5 5 -8 10 -19 10 -25z m-641 -90 l0 -30 -13 30 c-14 33 -10 68 5 43
5 -7 9 -26 8 -43z m61 -50 c0 -17 -2 -17 -10 -5 -5 8 -10 24 -10 35 0 17 2 17
10 5 5 -8 10 -24 10 -35z"/>
<path d="M640 3609 c0 -5 5 -7 10 -4 6 3 10 8 10 11 0 2 -4 4 -10 4 -5 0 -10
-5 -10 -11z"/>
<path d="M390 3135 c-7 -8 -9 -15 -6 -15 4 0 14 7 22 15 9 8 11 15 6 15 -5 0
-15 -7 -22 -15z"/>
<path d="M400 3110 c-8 -5 -10 -10 -5 -10 6 0 17 5 25 10 8 5 11 10 5 10 -5 0
-17 -5 -25 -10z"/>
<path d="M480 3041 c0 -5 5 -13 10 -16 6 -3 10 -2 10 4 0 5 -4 13 -10 16 -5 3
-10 2 -10 -4z"/>
<path d="M82 3255 c0 -16 2 -22 5 -12 2 9 2 23 0 30 -3 6 -5 -1 -5 -18z"/>
<path d="M3040 2255 c0 -14 -12 -19 -32 -16 -12 2 -10 -17 2 -24 6 -3 10 -17
10 -31 0 -21 3 -23 17 -15 13 7 23 5 36 -7 18 -16 18 -15 12 11 -5 17 -2 33 5
42 10 12 9 15 -5 15 -9 0 -19 9 -22 20 -6 23 -23 27 -23 5z"/>
<path d="M1918 378 c7 -7 12 -24 12 -38 0 -14 -5 -31 -12 -38 -9 -9 -9 -12 0
-12 22 0 37 47 24 75 -6 14 -17 25 -24 25 -9 0 -9 -3 0 -12z"/>
<path d="M2085 340 c0 -27 3 -50 8 -50 4 0 7 23 7 50 0 28 -3 50 -7 50 -5 0
-8 -22 -8 -50z"/>
<path d="M2340 340 c0 -27 5 -50 10 -50 6 0 10 23 10 50 0 28 -4 50 -10 50 -5
0 -10 -22 -10 -50z"/>
<path d="M2375 380 c3 -5 11 -10 16 -10 6 0 7 5 4 10 -3 6 -11 10 -16 10 -6 0
-7 -4 -4 -10z"/>
<path d="M2420 340 c0 -27 5 -50 10 -50 6 0 10 23 10 50 0 28 -4 50 -10 50 -5
0 -10 -22 -10 -50z"/>
<path d="M2468 365 c2 -14 0 -25 -6 -25 -7 0 -6 -9 1 -25 7 -14 18 -25 25 -25
10 0 10 5 -2 22 -11 16 -13 25 -5 35 12 14 5 43 -9 43 -5 0 -7 -11 -4 -25z"/>
<path d="M2030 332 c0 -23 3 -42 8 -42 9 0 8 68 -2 77 -3 3 -6 -12 -6 -35z"/>
<path d="M2130 326 c0 -20 5 -36 10 -36 6 0 10 13 10 29 0 17 -4 33 -10 36 -6
4 -10 -8 -10 -29z"/>
<path d="M2187 353 c-9 -9 -9 -51 1 -56 4 -3 7 10 7 29 0 19 0 34 -1 34 0 0
-4 -3 -7 -7z"/>
<path d="M2220 346 c0 -9 5 -16 10 -16 6 0 10 4 10 9 0 6 -4 13 -10 16 -5 3
-10 -1 -10 -9z"/>
</g>
</svg>
